<svg width="90" height="91" viewBox="0 0 90 91" fill="none" xmlns="http://www.w3.org/2000/svg">
<path d="M90 44C90 32.3305 85.2589 21.1389 76.8198 12.8873C68.3807 4.6357 56.9347 8.81025e-07 45 0C33.0653 -8.81025e-07 21.6193 4.6357 13.1802 12.8873C4.74106 21.1389 1.8021e-06 32.3305 0 44L28.172 44C28.172 39.6361 29.9449 35.451 33.1008 32.3652C36.2567 29.2795 40.5369 27.546 45 27.546C49.4631 27.546 53.7433 29.2795 56.8992 32.3652C60.0551 35.451 61.828 39.6361 61.828 44H90Z" fill="black"/>
<path d="M-3.91393e-06 48.5C-4.89933e-06 59.7717 4.74105 70.5817 13.1802 78.552C21.6193 86.5223 33.0653 91 45 91C56.9347 91 68.3807 86.5223 76.8198 78.552C85.2589 70.5817 90 59.7717 90 48.5L61.4728 48.5C61.4728 52.6261 59.7373 56.5833 56.648 59.5009C53.5588 62.4185 49.3689 64.0577 45 64.0577C40.6311 64.0577 36.4412 62.4185 33.352 59.5009C30.2627 56.5833 28.5272 52.6261 28.5272 48.5L-3.91393e-06 48.5Z" fill="black"/>
<circle cx="45" cy="46" r="10" fill="black"/>
</svg>
